<svg version="1.1" id="Layer_1" xmlns="http://www.w3.org/2000/svg" xmlns:xlink="http://www.w3.org/1999/xlink" x="0px" y="0px"
	 width="100%" viewBox="0 0 512 512" enable-background="new 0 0 512 512" xml:space="preserve">
<path fill="#FFFFFF" opacity="1.000000" stroke="none" 
	d="
M1.000000,476.000000 
	C1.000000,330.309265 1.000000,184.618515 1.325959,38.758423 
	C2.028515,38.263653 2.628513,38.005447 2.749574,37.603130 
	C8.054183,19.974594 19.443836,8.402960 37.035275,2.902116 
	C37.508808,2.754041 37.685097,1.655377 38.000000,1.000000 
	C183.690750,1.000000 329.381500,1.000000 475.241577,1.325947 
	C475.736359,2.028493 475.994537,2.628519 476.396851,2.749576 
	C494.025452,8.054139 505.597046,19.443846 511.097900,37.035309 
	C511.245972,37.508835 512.344604,37.685116 513.000000,38.000004 
	C513.000000,183.690750 513.000000,329.381500 512.674072,475.241547 
	C511.971527,475.736298 511.371490,475.994476 511.250458,476.396820 
	C505.945862,494.025452 494.556183,505.597107 476.964691,511.097900 
	C476.491150,511.246002 476.314880,512.344604 476.000000,513.000000 
	C330.309265,513.000000 184.618515,513.000000 38.758438,512.674072 
	C38.263687,511.971527 38.005501,511.371490 37.603176,511.250458 
	C19.974615,505.945831 8.402959,494.556183 2.902127,476.964722 
	C2.754036,476.491180 1.655378,476.314911 1.000000,476.000000 
M300.544250,148.479507 
	C299.763794,144.115158 302.755402,144.693527 305.418671,144.694382 
	C351.249146,144.709152 397.079620,144.704971 442.910095,144.704971 
	C444.692993,144.704971 446.475891,144.704971 448.369385,144.704971 
	C448.369385,132.456116 448.369385,120.759827 448.369385,109.077827 
	C385.408051,109.077827 322.816071,109.077827 260.181366,109.077827 
	C260.181366,208.051254 260.181366,306.773956 260.181366,405.591766 
	C323.061218,405.591766 385.641541,405.591766 448.429993,405.591766 
	C448.429993,393.622681 448.429993,381.901031 448.429993,369.777466 
	C399.017670,369.777466 349.912323,369.777466 300.897797,369.777466 
	C300.897797,336.115051 300.897797,302.857513 300.897797,269.091370 
	C347.648895,269.091370 394.048340,269.091370 440.317444,269.091370 
	C440.317444,257.145508 440.317444,245.714081 440.317444,233.880386 
	C393.551086,233.880386 347.117950,233.880386 300.543976,233.880386 
	C300.543976,205.473816 300.543976,177.478241 300.544250,148.479507 
M139.105026,286.499969 
	C139.105026,314.235535 139.105026,341.971130 139.105026,370.067932 
	C114.353142,370.067932 90.277832,370.067932 66.241707,370.067932 
	C66.241707,382.152008 66.241707,393.866211 66.241707,405.704346 
	C93.207970,405.704346 119.850052,406.248138 146.457169,405.517853 
	C164.952805,405.010193 175.770203,395.291260 178.668213,378.698303 
	C179.464539,374.138916 179.511505,369.408661 179.514130,364.756592 
	C179.561188,281.300964 179.548523,197.845276 179.548660,114.389610 
	C179.548660,112.626244 179.548660,110.862877 179.548660,109.032578 
	C165.791428,109.032578 152.686417,109.032578 139.105026,109.032578 
	C139.105026,167.993286 139.105026,226.746613 139.105026,286.499969 
z"/>
<path fill="#000000" opacity="1.000000" stroke="none" 
	d="
M37.531342,1.000000 
	C37.685097,1.655377 37.508808,2.754041 37.035275,2.902116 
	C19.443836,8.402960 8.054183,19.974594 2.749574,37.603130 
	C2.628513,38.005447 2.028515,38.263653 1.325959,38.294540 
	C1.000000,25.740049 1.000000,13.480098 1.000000,1.000000 
	C13.020000,1.000000 25.041342,1.000000 37.531342,1.000000 
z"/>
<path fill="#000000" opacity="1.000000" stroke="none" 
	d="
M513.000000,37.531345 
	C512.344604,37.685116 511.245972,37.508835 511.097900,37.035309 
	C505.597046,19.443846 494.025452,8.054139 476.396851,2.749576 
	C475.994537,2.628519 475.736359,2.028493 475.705475,1.325947 
	C488.259949,1.000000 500.519897,1.000000 513.000000,1.000000 
	C513.000000,13.020000 513.000000,25.041342 513.000000,37.531345 
z"/>
<path fill="#000000" opacity="1.000000" stroke="none" 
	d="
M1.000000,476.468658 
	C1.655378,476.314911 2.754036,476.491180 2.902127,476.964722 
	C8.402959,494.556183 19.974615,505.945831 37.603176,511.250458 
	C38.005501,511.371490 38.263687,511.971527 38.294552,512.674072 
	C25.740049,513.000000 13.480098,513.000000 1.000000,513.000000 
	C1.000000,500.980011 1.000000,488.958649 1.000000,476.468658 
z"/>
<path fill="#000000" opacity="1.000000" stroke="none" 
	d="
M476.468658,513.000000 
	C476.314880,512.344604 476.491150,511.246002 476.964691,511.097900 
	C494.556183,505.597107 505.945862,494.025452 511.250458,476.396820 
	C511.371490,475.994476 511.971527,475.736298 512.674072,475.705444 
	C513.000000,488.259949 513.000000,500.519897 513.000000,513.000000 
	C500.980011,513.000000 488.958649,513.000000 476.468658,513.000000 
z"/>
<path fill="#020202" opacity="1.000000" stroke="none" 
	d="
M300.544128,148.981079 
	C300.543976,177.478241 300.543976,205.473816 300.543976,233.880386 
	C347.117950,233.880386 393.551086,233.880386 440.317444,233.880386 
	C440.317444,245.714081 440.317444,257.145508 440.317444,269.091370 
	C394.048340,269.091370 347.648895,269.091370 300.897797,269.091370 
	C300.897797,302.857513 300.897797,336.115051 300.897797,369.777466 
	C349.912323,369.777466 399.017670,369.777466 448.429993,369.777466 
	C448.429993,381.901031 448.429993,393.622681 448.429993,405.591766 
	C385.641541,405.591766 323.061218,405.591766 260.181366,405.591766 
	C260.181366,306.773956 260.181366,208.051254 260.181366,109.077827 
	C322.816071,109.077827 385.408051,109.077827 448.369385,109.077827 
	C448.369385,120.759827 448.369385,132.456116 448.369385,144.704971 
	C446.475891,144.704971 444.692993,144.704971 442.910095,144.704971 
	C397.079620,144.704971 351.249146,144.709152 305.418671,144.694382 
	C302.755402,144.693527 299.763794,144.115158 300.544128,148.981079 
z"/>
<path fill="#040404" opacity="1.000000" stroke="none" 
	d="
M139.105026,285.999939 
	C139.105026,226.746613 139.105026,167.993286 139.105026,109.032578 
	C152.686417,109.032578 165.791428,109.032578 179.548660,109.032578 
	C179.548660,110.862877 179.548660,112.626244 179.548660,114.389610 
	C179.548523,197.845276 179.561188,281.300964 179.514130,364.756592 
	C179.511505,369.408661 179.464539,374.138916 178.668213,378.698303 
	C175.770203,395.291260 164.952805,405.010193 146.457169,405.517853 
	C119.850052,406.248138 93.207970,405.704346 66.241707,405.704346 
	C66.241707,393.866211 66.241707,382.152008 66.241707,370.067932 
	C90.277832,370.067932 114.353142,370.067932 139.105026,370.067932 
	C139.105026,341.971130 139.105026,314.235535 139.105026,285.999939 
z"/>
</svg>